<?xml version="1.0" encoding="UTF-8" standalone="no"?>
<svg width="545px" height="565px" viewBox="0 0 545 565" version="1.1" xmlns="http://www.w3.org/2000/svg" xmlns:xlink="http://www.w3.org/1999/xlink" xmlns:sketch="http://www.bohemiancoding.com/sketch/ns">
    <!-- Generator: Sketch 3.3.3 (12081) - http://www.bohemiancoding.com/sketch -->
    <title>happy-yoga</title>
    <desc>Created with Sketch.</desc>
    <defs>
        <path id="path-1" d="M229.5,437 C340.233092,437 430,347.233092 430,236.5 C430,125.766908 340.233092,36 229.5,36 C118.766908,36 29,125.766908 29,236.5 C29,347.233092 118.766908,437 229.5,437 Z"></path>
    </defs>
    <g id="Page-1" stroke="none" stroke-width="1" fill="none" fill-rule="evenodd" sketch:type="MSPage">
        <g id="logo" sketch:type="MSLayerGroup" transform="translate(0.000000, -1.000000)">
            <path d="M196.703132,38.7734356 C215.912121,29.1933575 232.945313,6.34375 261.84375,1.81640625 C290.742188,-2.7109375 313.097656,12.25 332.742188,27.8828125 C352.386719,43.515625 357.677732,38.7734356 380.746094,38.7734375 C403.814456,38.7734394 415.156253,38.7734356 435.972656,50.6171875 C456.78906,62.4609394 471.433594,112.078125 471.433594,112.078125 C471.433594,112.078125 479.671875,137.636717 516.75,160.179688 C553.828125,182.722658 548.59375,238.367186 532.671875,263.738281 C516.75,289.109377 535.3125,310.562498 539.355469,319.785156 C543.398438,329.007814 557.050781,374.507811 514.242188,408.101563 C471.433594,441.695314 475.980469,438.449217 470.453125,458.640625 C464.925781,478.832033 444.832031,525.789061 397.820313,525.789062 C350.808594,525.789064 344.675781,528.093748 328.347656,541.070312 C312.019531,554.046877 275.363281,581.347654 233.609375,552.128906 C191.855469,522.910158 188.332031,524.273436 154.328125,524.273438 C120.324219,524.273439 86.2832037,505.816408 77.1738287,474.51758 C68.0644537,443.218752 68.5976557,436.933592 28.109375,403.253906 C-12.3789057,369.574221 2.53710938,314.900389 10.6777344,301.867187 C18.8183594,288.833986 14.8613284,268.929686 3.5859375,239.416016 C-7.68945344,209.902346 8.84527827,171.799073 47.09375,148.046875 C76.8593747,129.562502 74.0234348,102.699217 76.859375,92.9160156 C79.6953152,83.1328144 89.7265552,53.8359394 129.761719,44.7167969 C169.796882,35.5976543 177.494143,48.3535137 196.703132,38.7734356 Z M204.212482,62.992598 C221.517103,54.3622832 236.861634,33.7779725 262.895097,29.6994669 C288.92856,25.6209614 309.067721,39.0986803 326.764705,53.1816649 C344.461689,67.2646495 349.228154,62.992598 370.009532,62.9925997 C390.79091,62.9926014 401.008288,62.992598 419.760965,73.6621672 C438.513643,84.3317365 451.706326,129.029903 451.706326,129.029903 C451.706326,129.029903 459.127869,152.054631 492.53009,172.362705 C525.932312,192.670779 521.216869,242.79874 506.87348,265.65456 C492.53009,288.51038 509.252315,307.836651 512.894466,316.144981 C516.536617,324.45331 528.835476,365.442463 490.270901,395.70575 C451.706326,425.969037 455.802426,423.044755 450.82306,441.234399 C445.843694,459.424043 427.742027,501.725778 385.391023,501.72578 C343.040018,501.725781 337.515209,503.80198 322.805845,515.492055 C308.096481,527.182131 275.07431,551.776325 237.459862,525.454307 C199.845413,499.132288 196.671287,500.360411 166.038508,500.360413 C135.40573,500.360415 104.739521,483.733203 96.5332441,455.537322 C88.3269672,427.341442 88.8073079,421.679389 52.3330117,391.338687 C15.8587155,360.997986 29.2959656,311.744486 36.6295338,300.003389 C43.963102,288.262292 40.3983688,270.331292 30.2408135,243.74359 C20.0832583,217.155888 34.9787463,182.830152 69.4352869,161.432732 C96.2499649,144.780889 93.6951785,120.580815 96.2499652,111.767514 C98.8047519,102.954214 107.841501,76.5618139 143.907601,68.3467379 C179.973702,60.1316618 186.907861,71.6229127 204.212482,62.992598 Z" id="outer-border" fill="#E9D195" sketch:type="MSShapeGroup"></path>
            <g id="inner-logo" transform="translate(44.000000, 48.000000)">
                <path d="M164.328885,31.5295587 C180.335988,23.5463534 194.529971,4.50547449 218.611419,0.732779295 C242.692868,-3.0399159 261.321975,9.42723042 277.692021,22.454259 C294.062068,35.4812876 298.471139,31.5295587 317.694309,31.5295603 C336.917479,31.5295619 346.368748,31.5295587 363.715331,41.3991132 C381.061914,51.2686677 393.265397,92.6153221 393.265397,92.6153221 C393.265397,92.6153221 400.130466,113.913633 431.028156,132.698988 C461.925846,151.484342 457.563972,197.85366 444.296064,218.995728 C431.028156,240.137797 446.496532,258.014965 449.865591,265.700328 C453.23465,273.38569 464.611328,311.301436 428.938363,339.295552 C393.265397,367.289668 397.054368,364.584653 392.44836,381.410419 C387.842351,398.236185 371.097965,437.366095 331.92248,437.366097 C292.746996,437.366098 287.636442,439.286621 274.030001,450.100164 C260.423559,460.913706 229.877423,483.663803 195.083343,459.315435 C160.289263,434.967068 157.353136,436.103105 129.017233,436.103106 C100.68133,436.103108 72.3145034,420.722621 64.7235412,394.640895 C57.132579,368.559169 57.5769032,363.321662 23.8374855,335.255937 C-9.90193221,307.190211 2.52777967,261.629786 9.31146973,250.769048 C16.0951598,239.90831 12.7977138,223.321794 3.40178196,198.727664 C-5.99414985,174.133534 7.78445991,142.381575 39.6574153,122.588555 C64.4615025,107.185284 62.0982765,84.7997544 64.4615027,76.6472839 C66.824729,68.4948135 75.1838935,44.0813416 108.545723,36.48224 C141.907552,28.8831384 148.321781,39.512764 164.328885,31.5295587 Z" id="inner-background" fill="#3A4C64" sketch:type="MSShapeGroup"></path>
                <path d="M228.5,459 C351.383357,459 451,359.383357 451,236.5 C451,113.616643 351.383357,14 228.5,14 C105.616643,14 6,113.616643 6,236.5 C6,359.383357 105.616643,459 228.5,459 Z M229,445 C343.875228,445 437,351.875228 437,237 C437,122.124772 343.875228,29 229,29 C114.124772,29 21,122.124772 21,237 C21,351.875228 114.124772,445 229,445 Z" id="inner-ring" fill="#E9D195" sketch:type="MSShapeGroup"></path>
                <mask id="mask-2" sketch:name="texture-mask" fill="white">
                    <use xlink:href="#path-1"></use>
                </mask>
                <use id="texture-mask" sketch:type="MSShapeGroup" xlink:href="#path-1"></use>
                <g id="masked-texture" mask="url(#mask-2)">
                    <g transform="translate(9.000000, 36.000000)">
                        <g id="lines" stroke-width="1" fill="none" sketch:type="MSLayerGroup">
                            <g id="lower-half" transform="translate(0.000000, 259.000000)" fill="#6894C3" sketch:type="MSShapeGroup">
                                <g id="upper-third" transform="translate(0.169922, 0.000000)">
                                    <rect id="line" x="0" y="0" width="440.376953" height="6"></rect>
                                    <rect id="line" x="0" y="12" width="440.376953" height="6"></rect>
                                    <rect id="line" x="0" y="24" width="440.376953" height="6"></rect>
                                    <rect id="line" x="0" y="37" width="440.376953" height="6"></rect>
                                    <rect id="line" x="0" y="50" width="440.376953" height="6"></rect>
                                    <rect id="line" x="0" y="63" width="440.376953" height="6"></rect>
                                </g>
                                <g id="upper-third" transform="translate(0.169922, 76.000000)">
                                    <rect id="line" x="0" y="0" width="440.376953" height="6"></rect>
                                    <rect id="line" x="0" y="12" width="440.376953" height="6"></rect>
                                    <rect id="line" x="0" y="24" width="440.376953" height="6"></rect>
                                    <rect id="line" x="0" y="37" width="440.376953" height="6"></rect>
                                    <rect id="line" x="0" y="49" width="440.376953" height="6"></rect>
                                    <rect id="line" x="0" y="61" width="440.376953" height="6"></rect>
                                    <rect id="line" x="0" y="74" width="440.376953" height="6"></rect>
                                    <rect id="line" x="0" y="87" width="440.376953" height="6"></rect>
                                    <rect id="line" x="0" y="99" width="440.376953" height="6"></rect>
                                </g>
                            </g>
                            <g id="upper-half" fill="#6894C3" sketch:type="MSShapeGroup">
                                <g id="upper-third" transform="translate(0.169922, 0.000000)">
                                    <rect id="line" x="0" y="0" width="440.376953" height="6"></rect>
                                    <rect id="line" x="0" y="12" width="440.376953" height="6"></rect>
                                    <rect id="line" x="0" y="24" width="440.376953" height="6"></rect>
                                    <rect id="line" x="0" y="37" width="440.376953" height="6"></rect>
                                    <rect id="line" x="0" y="49" width="440.376953" height="6"></rect>
                                    <rect id="line" x="0" y="61" width="440.376953" height="6"></rect>
                                    <rect id="line" x="0" y="74" width="440.376953" height="6"></rect>
                                    <rect id="line" x="0" y="86" width="440.376953" height="6"></rect>
                                    <rect id="line" x="0" y="98" width="440.376953" height="6"></rect>
                                </g>
                                <g id="lower-third" transform="translate(0.169922, 111.000000)">
                                    <rect id="line" x="0" y="0" width="440.376953" height="6"></rect>
                                    <rect id="line" x="0" y="12" width="440.376953" height="6"></rect>
                                    <rect id="line" x="0" y="24" width="440.376953" height="6"></rect>
                                </g>
                            </g>
                        </g>
                        <rect id="red-contrast" fill="#B53704" sketch:type="MSShapeGroup" x="12" y="147" width="416" height="107"></rect>
                    </g>
                </g>
                <g id="-yogi" mask="url(#mask-2)" sketch:type="MSShapeGroup">
                    <g transform="translate(51.000000, 124.000000)">
                        <path d="M114.224609,113.055664 C104.879883,132.175781 106.789795,149.504639 111.730957,158.499023 C128.797363,161.643555 139.80298,153.871338 139.80298,153.871338 C139.80298,153.871338 143.695803,156.608887 152.031252,155.544922 C160.366701,154.480957 172.741697,144.652344 181.648191,135.324463 C177.297605,146.652344 179.900146,153.044922 183.000975,159.720215 C194.86865,161.213379 209.242187,148.19165 213.615477,145.4729 C210.989502,152.581543 204.877928,167.554688 170.528809,194.437012 C138.585449,220.040527 138.702881,237.095459 138.702881,241.841553 C138.702881,246.587647 143.620363,259.968018 164.355957,249.328125 C182.167725,239.254395 189.5874,223.636475 195.449949,213.819824 C201.312498,204.003174 210.731936,184.424805 229.228516,160.802734 C237.340818,153.112549 253.882811,139.481445 260.653318,139.481445 C261.916992,147.428711 261.581334,154.497954 268.108396,158.499023 C274.870117,160.013672 285.157227,148.030273 296.866209,143.761719 C296.236328,151.047852 292.643555,157.834961 299.144529,159.720215 C320.423826,158.499023 332.699217,144.880371 331.067381,136.533203 C325.036133,139.537598 323.154297,144.291992 319.271482,144.880371 C321.223633,129.268555 342.230469,118.012695 351.014646,88.7578125 C343.969727,87.1171875 340.606514,87.0164508 338.455076,86.9453125 C339.977537,80.765625 337.974607,74.5057099 337.974607,71.6171875 C309.903318,73.4052734 298.85449,75.293213 264.021238,123.001708 C250.404047,137.286378 250.783447,135.591309 237.34082,144.880371 C231.800779,150.012209 235.16748,142.487549 237.622312,138.186038 C250.510742,114.041504 266.474365,92.496582 273.700925,75.2932129 C265.748779,76.6149902 262.382812,77.5349121 256.11865,78.3859865 C241.282956,73.8562011 230.741205,77.7944331 220.871579,82.5014644 C211.001953,87.2084956 194.971682,103.978271 188.488281,115.222656 C183.525879,122.068848 164.456787,146.963623 154.199709,144.880371 C158.29248,141.967041 169.214113,132.230225 178.564207,118.544678 C187.914301,104.859131 190.094969,85.5874018 181.029783,77.5947266 C165.071777,76.6738281 162.23755,87.4733889 162.23755,87.4733889 C162.23755,87.4733889 167.240479,85.5710449 169.602297,91.5678711 C167.339111,99.1774902 170.010986,131.426514 130.507812,149.504642 C127.05542,129.552002 131.696045,106.574707 155.659425,84.4316407 C169.674316,74.6643066 169.856935,73.1894531 169.856935,71.6171875 C164.062988,72.517334 135.162353,79.5778804 114.224609,113.055664 Z M201.08081,144.845704 C203.205811,131.816408 211.734043,99.3976602 241.558594,85.0322266 C242.112227,84.7655606 245.827637,84.7583008 245.321532,88.0156249 C235.290771,118.516846 204.906738,139.072267 201.08081,144.845704 Z M291.671875,136.127931 C290.326172,128.911131 298.553711,105.99707 324.558594,84.0322266 C325.061184,83.6077172 327.702392,84.1938477 327.196287,87.4511718 C317.165526,117.952393 297.36914,136.127932 291.671875,136.127931 Z M189.358152,190.721924 C185.681641,201.203369 166.487305,225.46167 159.613525,232.230469 C155.708008,234.387939 154.608643,232.198486 155.639893,229.701416 C156.671143,227.204346 176.689453,194.580078 189.358152,190.721924 Z M3.1201172,107.856443 C-3.39257812,52.3828125 46.5385742,3.15917969 85.057128,4.61132812 C107.402346,2.64257812 118.791992,19.7226562 107.402343,42.699707 C102.338869,53.1625994 94.3724709,61.0432378 90.8173819,66.5 C83.1464844,86.4521484 69.2084961,110.289551 61.3916007,122.15332 C54.203125,136.609863 52.796875,142.046387 51.3432608,147.09375 C56.2255859,144.253418 71.5146484,136.588867 89.5371085,110.979492 C115.732421,67.4277344 115.870116,62.5703125 140.554206,14.706543 C152.380622,12.7336426 167.715827,10.1374512 167.715827,10.1374512 C167.715827,10.1374512 134.660647,66.6425754 109.858889,112.312986 C85.057131,157.983396 36.8095685,246.346677 36.8095685,246.346677 L19.3471681,246.346677 C19.3471681,246.346677 63.4042969,159.527344 66.0351545,153.552732 C59.2558594,154.895996 49.222168,165.923828 37.6191389,165.738767 C27.0859349,161.637204 30.5336896,145.225583 36.8095685,125.620603 C43.0854475,106.015622 88.0527364,42.6997081 88.0527364,24.3222648 C78.8764669,11.029297 54.5576154,24.3222648 54.5576154,24.3222648 C54.5576154,24.3222648 20.0947267,47.3686535 21.2270509,94.5058567 C34.0776367,91.8330078 41.5214844,84.5463867 49.5332014,74.1552707 C62.65625,52.8686523 70.8725921,35.5273506 77.0195333,32.0937492 C74.5698242,52.5625 40.6240234,124.461426 3.1201172,107.856443 Z" id="shadow" fill="#293D4E"></path>
                        <path d="M112.224609,109.055664 C102.879883,128.175781 104.789795,145.504639 109.730957,154.499023 C126.797363,157.643555 137.80298,149.871338 137.80298,149.871338 C137.80298,149.871338 141.695803,152.608887 150.031252,151.544922 C158.366701,150.480957 170.741697,140.652344 179.648191,131.324463 C175.297605,142.652344 177.900146,149.044922 181.000975,155.720215 C192.86865,157.213379 207.242187,144.19165 211.615477,141.4729 C208.989502,148.581543 202.877928,163.554688 168.528809,190.437012 C136.585449,216.040527 136.702881,233.095459 136.702881,237.841553 C136.702881,242.587647 141.620363,255.968018 162.355957,245.328125 C180.167725,235.254395 187.5874,219.636475 193.449949,209.819824 C199.312498,200.003174 208.731936,180.424805 227.228516,156.802734 C235.340818,149.112549 251.882811,135.481445 258.653318,135.481445 C259.916992,143.428711 259.581334,150.497954 266.108396,154.499023 C272.870117,156.013672 283.157227,144.030273 294.866209,139.761719 C294.236328,147.047852 290.643555,153.834961 297.144529,155.720215 C318.423826,154.499023 330.699217,140.880371 329.067381,132.533203 C323.036133,135.537598 321.154297,140.291992 317.271482,140.880371 C319.223633,125.268555 340.230469,114.012695 349.014646,84.7578125 C341.969727,83.1171875 338.606514,83.0164508 336.455076,82.9453125 C337.977537,76.765625 335.974607,70.5057099 335.974607,67.6171875 C307.903318,69.4052734 296.85449,71.293213 262.021238,119.001708 C248.404047,133.286378 248.783447,131.591309 235.34082,140.880371 C229.800779,146.012209 233.16748,138.487549 235.622312,134.186038 C248.510742,110.041504 264.474365,88.496582 271.700925,71.2932129 C263.748779,72.6149902 260.382812,73.5349121 254.11865,74.3859865 C239.282956,69.8562011 228.741205,73.7944331 218.871579,78.5014644 C209.001953,83.2084956 192.971682,99.9782715 186.488281,111.222656 C181.525879,118.068848 162.456787,142.963623 152.199709,140.880371 C156.29248,137.967041 167.214113,128.230225 176.564207,114.544678 C185.914301,100.859131 188.094969,81.5874018 179.029783,73.5947266 C163.071777,72.6738281 160.23755,83.4733889 160.23755,83.4733889 C160.23755,83.4733889 165.240479,81.5710449 167.602297,87.5678711 C165.339111,95.1774902 168.010986,127.426514 128.507812,145.504642 C125.05542,125.552002 129.696045,102.574707 153.659425,80.4316407 C167.674316,70.6643066 167.856935,69.1894531 167.856935,67.6171875 C162.062988,68.517334 133.162353,75.5778804 112.224609,109.055664 Z M199.08081,140.845704 C201.205811,127.816408 209.734043,95.3976602 239.558594,81.0322266 C240.112227,80.7655606 243.827637,80.7583008 243.321532,84.0156249 C233.290771,114.516846 202.906738,135.072267 199.08081,140.845704 Z M289.671875,132.127931 C288.326172,124.911131 296.553711,101.99707 322.558594,80.0322266 C323.061184,79.6077172 325.702392,80.1938477 325.196287,83.4511718 C315.165526,113.952393 295.36914,132.127932 289.671875,132.127931 Z M187.358152,186.721924 C183.681641,197.203369 164.487305,221.46167 157.613525,228.230469 C153.708008,230.387939 152.608643,228.198486 153.639893,225.701416 C154.671143,223.204346 174.689453,190.580078 187.358152,186.721924 Z M1.1201172,103.856443 C-5.39257812,48.3828125 44.5385742,-0.840820313 83.057128,0.611328125 C105.402346,-1.35742188 116.791992,15.7226562 105.402343,38.699707 C100.338869,49.1625994 92.3724709,57.0432378 88.8173819,62.5 C81.1464844,82.4521484 67.2084961,106.289551 59.3916007,118.15332 C52.203125,132.609863 50.796875,138.046387 49.3432608,143.09375 C54.2255859,140.253418 69.5146484,132.588867 87.5371085,106.979492 C113.732421,63.4277344 113.870116,58.5703125 138.554206,10.706543 C150.380622,8.73364258 165.715827,6.13745117 165.715827,6.13745117 C165.715827,6.13745117 132.660647,62.6425754 107.858889,108.312986 C83.057131,153.983396 34.8095685,242.346677 34.8095685,242.346677 L17.3471681,242.346677 C17.3471681,242.346677 61.4042969,155.527344 64.0351545,149.552732 C57.2558594,150.895996 47.222168,161.923828 35.6191389,161.738767 C25.0859349,157.637204 28.5336896,141.225583 34.8095685,121.620603 C41.0854475,102.015622 86.0527364,38.6997081 86.0527364,20.3222648 C76.8764669,7.02929703 52.5576154,20.3222648 52.5576154,20.3222648 C52.5576154,20.3222648 18.0947267,43.3686535 19.2270509,90.5058567 C32.0776367,87.8330078 39.5214844,80.5463867 47.5332014,70.1552707 C60.65625,48.8686523 68.8725921,31.5273506 75.0195333,28.0937492 C72.5698242,48.5625 38.6240234,120.461426 1.1201172,103.856443 Z" id="yogi" fill="#E9D195"></path>
                    </g>
                </g>
                <g id="shadow-+-HAPPY" mask="url(#mask-2)" sketch:type="MSShapeGroup">
                    <g transform="translate(132.000000, 66.000000)">
                        <path d="M37.9449848,42.6837335 C38.3276237,43.0827063 39.0259292,43.4186784 40.0399222,43.6916598 L40.0399222,45.7705078 L25.0596848,45.7705078 L25.0596848,43.6916598 C26.1693376,43.3766812 26.8867747,43.0617074 27.2120178,42.7467288 C27.5372609,42.4317503 27.7668407,41.9855374 27.9007643,41.4080767 C28.034688,40.830616 28.1016488,39.6494642 28.1016488,37.8645857 L28.1016488,25.234009 L15.1302555,25.234009 L15.1302555,37.8645857 C15.1302555,38.5995357 15.1493871,39.281979 15.187651,39.9119361 C15.2259149,40.5418932 15.3024415,41.0563504 15.4172332,41.4553232 C15.5320248,41.8542961 15.6994268,42.1902682 15.9194442,42.4632496 C16.1394616,42.736231 16.4407852,42.9724613 16.8234241,43.1719478 C17.2060629,43.3714342 17.6747885,43.5446698 18.2296149,43.6916598 L18.2296149,45.7705078 L3.1632842,45.7705078 L3.1632842,43.6916598 C3.87116614,43.4816741 4.43076711,43.2559428 4.84210391,43.0144593 C5.25344071,42.7729757 5.55954723,42.4370036 5.76043264,42.006533 C5.96131805,41.5760623 6.09045674,41.0301076 6.14785257,40.3686527 C6.20524841,39.7071977 6.23394589,38.8725171 6.23394589,37.8645857 L6.23394589,10.7135704 C6.23394589,9.72663762 6.21003132,8.89720655 6.16220146,8.22525231 C6.1143716,7.55329807 5.99001583,7.00734343 5.78913041,6.58737203 C5.588245,6.16740063 5.28213848,5.82617899 4.87080168,5.56369686 C4.45946488,5.30121474 3.89029808,5.06498437 3.1632842,4.85499867 L3.1632842,2.77615063 L18.2296149,2.77615063 L18.2296149,4.85499867 C17.2156219,5.16997722 16.5220993,5.51644843 16.1490264,5.89442269 C15.7759535,6.27239695 15.5128932,6.77110551 15.3598376,7.39056332 C15.2067821,8.01002114 15.1302555,9.12817822 15.1302555,10.7450681 L15.1302555,21.2652991 L28.1016488,21.2652991 L28.1016488,10.7450681 C28.1016488,9.14917679 28.0394709,8.04151884 27.9151132,7.42206102 C27.7907556,6.8026032 27.5420441,6.29864508 27.1689711,5.91017154 C26.7958982,5.52169799 26.0928098,5.16997722 25.0596848,4.85499867 L25.0596848,2.77615063 L40.0399222,2.77615063 L40.0399222,4.85499867 C39.1981167,5.10698151 38.5859037,5.37470926 38.2032648,5.65818996 C37.8206259,5.94167065 37.5479998,6.30389055 37.3853783,6.74486052 C37.2227567,7.18583049 37.1175326,7.67928949 37.0697028,8.22525231 C37.0218729,8.77121513 36.9979583,9.61114533 36.9979583,10.7450681 L36.9979583,37.8645857 C36.9979583,39.4814756 37.0601362,40.5891336 37.1844938,41.1875928 C37.3088515,41.7860521 37.5623459,42.2847606 37.9449848,42.6837335 Z M54.7817334,35.439263 C54.5138861,36.2792058 54.2938721,37.0928882 54.1216846,37.8803346 C53.9494971,38.6677809 53.8634046,39.5024616 53.8634046,40.3844015 C53.8634046,42.4422614 54.8582508,43.5446698 56.847973,43.6916598 L56.847973,45.7705078 L44.594024,45.7705078 L44.594024,43.6916598 C45.301906,43.6076655 45.9236848,43.3346882 46.4593792,42.8727196 C46.9950737,42.4107511 47.4829309,41.7808034 47.9229657,40.9828578 C48.3630004,40.1849121 48.831726,39.0405072 49.3291565,37.5496087 L61.2961278,2.55566674 L68.9584331,2.55566674 L78.4286981,37.833088 C78.8496009,39.4079808 79.2035366,40.5261379 79.4905157,41.1875928 C79.7774949,41.8490478 80.1505622,42.3845033 80.6097289,42.7939754 C81.0688955,43.2034475 81.709806,43.5026726 82.5324796,43.6916598 L82.5324796,45.7705078 L66.6913091,45.7705078 L66.6913091,43.6916598 C67.6861702,43.5656684 68.422739,43.2611937 68.9010376,42.7782265 C69.3793362,42.2952594 69.6184819,41.6128161 69.6184819,40.7308762 C69.6184819,40.0799205 69.5515211,39.3554807 69.4175975,38.5575351 C69.2836739,37.7595894 69.0636598,36.7516732 68.7575487,35.5337561 L67.9827088,32.4469817 L55.7287599,32.4469817 L54.7817334,35.439263 Z M62.5588298,11.0285474 L56.8192752,28.7617511 L67.1504734,28.7617511 L62.5588298,11.0285474 Z M101.474092,42.2270168 C101.69411,42.5734932 102.009782,42.8622192 102.421119,43.0932035 C102.832456,43.3241878 103.468583,43.5236712 104.329521,43.6916598 L104.329521,45.7705078 L88.8901191,45.7705078 L88.8901191,43.6916598 C89.598001,43.4816741 90.157602,43.2559428 90.5689388,43.0144593 C90.9802756,42.7729757 91.2863821,42.4370036 91.4872675,42.006533 C91.6881529,41.5760623 91.8172916,41.0301076 91.8746874,40.3686527 C91.9320833,39.7071977 91.9607807,38.8725171 91.9607807,37.8645857 L91.9607807,10.7135704 C91.9607807,9.72663762 91.9368662,8.89720655 91.8890363,8.22525231 C91.8412065,7.55329807 91.7168507,7.00734343 91.5159653,6.58737203 C91.3150799,6.16740063 91.0089733,5.82617899 90.5976365,5.56369686 C90.1862997,5.30121474 89.6171329,5.06498437 88.8901191,4.85499867 L88.8901191,2.77615063 L105.563525,2.77615063 C110.403907,2.77615063 114.029356,3.72632167 116.439981,5.62669226 C118.850606,7.52706285 120.0559,10.4510699 120.0559,14.398801 C120.0559,17.1916108 119.491516,19.6169093 118.362732,21.6747692 C117.233947,23.732629 115.59819,25.2917495 113.455413,26.3521773 C111.312635,27.412605 108.634203,27.942811 105.420036,27.942811 C103.564238,27.942811 102.043271,27.9008145 100.85709,27.8168202 L100.85709,37.8960834 C100.85709,39.281989 100.904919,40.2636575 101.000579,40.8411181 C101.096239,41.4185788 101.254075,41.8805404 101.474092,42.2270168 Z M107.888045,23.359896 C109.016829,22.7614367 109.853839,21.8112657 110.3991,20.5093544 C110.94436,19.207443 111.216986,17.4540887 111.216986,15.2492389 C111.216986,13.0653876 110.94436,11.327782 110.3991,10.0363699 C109.853839,8.74495786 109.055093,7.8262842 108.002836,7.28032138 C106.950579,6.73435856 105.601797,6.46138124 103.95645,6.46138124 C102.617214,6.46138124 101.584104,6.4823795 100.85709,6.52437664 L100.85709,24.2575804 L103.325099,24.2575804 C105.238293,24.2575804 106.75926,23.9583552 107.888045,23.359896 Z M139.547193,42.2270168 C139.76721,42.5734932 140.082883,42.8622192 140.494219,43.0932035 C140.905556,43.3241878 141.541684,43.5236712 142.402621,43.6916598 L142.402621,45.7705078 L126.963219,45.7705078 L126.963219,43.6916598 C127.671101,43.4816741 128.230702,43.2559428 128.642039,43.0144593 C129.053376,42.7729757 129.359482,42.4370036 129.560368,42.006533 C129.761253,41.5760623 129.890392,41.0301076 129.947788,40.3686527 C130.005184,39.7071977 130.033881,38.8725171 130.033881,37.8645857 L130.033881,10.7135704 C130.033881,9.72663762 130.009967,8.89720655 129.962137,8.22525231 C129.914307,7.55329807 129.789951,7.00734343 129.589066,6.58737203 C129.38818,6.16740063 129.082074,5.82617899 128.670737,5.56369686 C128.2594,5.30121474 127.690233,5.06498437 126.963219,4.85499867 L126.963219,2.77615063 L143.636625,2.77615063 C148.477007,2.77615063 152.102456,3.72632167 154.513081,5.62669226 C156.923706,7.52706285 158.129001,10.4510699 158.129001,14.398801 C158.129001,17.1916108 157.564617,19.6169093 156.435832,21.6747692 C155.307047,23.732629 153.671291,25.2917495 151.528513,26.3521773 C149.385735,27.412605 146.707303,27.942811 143.493137,27.942811 C141.637338,27.942811 140.116371,27.9008145 138.930191,27.8168202 L138.930191,37.8960834 C138.930191,39.281989 138.97802,40.2636575 139.07368,40.8411181 C139.169339,41.4185788 139.327175,41.8805404 139.547193,42.2270168 Z M145.961145,23.359896 C147.08993,22.7614367 147.92694,21.8112657 148.4722,20.5093544 C149.017461,19.207443 149.290087,17.4540887 149.290087,15.2492389 C149.290087,13.0653876 149.017461,11.327782 148.4722,10.0363699 C147.92694,8.74495786 147.128193,7.8262842 146.075936,7.28032138 C145.023679,6.73435856 143.674897,6.46138124 142.02955,6.46138124 C140.690314,6.46138124 139.657205,6.4823795 138.930191,6.52437664 L138.930191,24.2575804 L141.398199,24.2575804 C143.311394,24.2575804 144.83236,23.9583552 145.961145,23.359896 Z M184.23513,40.4001504 C184.292526,40.9776111 184.39775,41.4448222 184.550805,41.8017979 C184.703861,42.1587736 184.890395,42.4474996 185.110412,42.6679846 C185.330429,42.8884696 185.636536,43.087953 186.028741,43.2664409 C186.420946,43.4449287 186.951849,43.5866669 187.621467,43.6916598 L187.621467,45.7705078 L171.780296,45.7705078 L171.780296,43.6916598 C172.564706,43.5446698 173.191268,43.3556855 173.660001,43.1247012 C174.128733,42.8937169 174.477886,42.5577449 174.707469,42.1167749 C174.937053,41.6758049 175.085323,41.1141016 175.152285,40.4316481 C175.219247,39.7491945 175.252727,38.8935157 175.252727,37.8645857 L175.252727,29.2342166 L167.475631,11.2175336 C166.806012,9.68463796 166.279892,8.55073219 165.897253,7.81578224 C165.457218,6.95484087 165.079368,6.33539234 164.763691,5.95741808 C164.448014,5.57944382 164.156256,5.31696563 163.888409,5.16997564 C163.620562,5.02298565 163.247494,4.91799438 162.769196,4.85499867 L162.769196,2.77615063 L178.065109,2.77615063 L178.065109,4.85499867 C176.591949,5.06498437 175.85538,5.86291806 175.85538,7.24882368 C175.85538,7.7947865 175.974953,8.44573241 176.214102,9.20168093 C176.453252,9.95762945 176.840668,10.9655457 177.376362,12.2254599 L182.226286,24.0685942 L187.477978,12.5089392 C187.994541,11.3540178 188.353259,10.3933477 188.554145,9.62689985 C188.75503,8.86045204 188.855471,8.0992653 188.855471,7.34331678 C188.855471,6.58736825 188.659372,5.99416755 188.267167,5.56369686 C187.874962,5.13322618 187.324927,4.89699581 186.617045,4.85499867 L186.617045,2.77615063 L198.124852,2.77615063 L198.124852,4.85499867 C197.608289,4.98099009 197.18261,5.15422569 196.847801,5.37471068 C196.512992,5.59519566 196.144708,5.94166687 195.742937,6.4141347 C195.341166,6.88660252 194.862874,7.59529363 194.308048,8.54022928 C193.753222,9.48516494 193.112311,10.7135629 192.385297,12.2254599 L184.149037,29.2342166 L184.149037,37.8645857 C184.149037,38.9775099 184.177734,39.8226897 184.23513,40.4001504 Z" id="shadow" fill="#293D4E"></path>
                        <path d="M34.9449848,40.6837335 C35.3276237,41.0827063 36.0259292,41.4186784 37.0399222,41.6916598 L37.0399222,43.7705078 L22.0596848,43.7705078 L22.0596848,41.6916598 C23.1693376,41.3766812 23.8867747,41.0617074 24.2120178,40.7467288 C24.5372609,40.4317503 24.7668407,39.9855374 24.9007643,39.4080767 C25.034688,38.830616 25.1016488,37.6494642 25.1016488,35.8645857 L25.1016488,23.234009 L12.1302555,23.234009 L12.1302555,35.8645857 C12.1302555,36.5995357 12.1493871,37.281979 12.187651,37.9119361 C12.2259149,38.5418932 12.3024415,39.0563504 12.4172332,39.4553232 C12.5320248,39.8542961 12.6994268,40.1902682 12.9194442,40.4632496 C13.1394616,40.736231 13.4407852,40.9724613 13.8234241,41.1719478 C14.2060629,41.3714342 14.6747885,41.5446698 15.2296149,41.6916598 L15.2296149,43.7705078 L0.163284203,43.7705078 L0.163284203,41.6916598 C0.871166138,41.4816741 1.43076711,41.2559428 1.84210391,41.0144593 C2.25344071,40.7729757 2.55954723,40.4370036 2.76043264,40.006533 C2.96131805,39.5760623 3.09045674,39.0301076 3.14785257,38.3686527 C3.20524841,37.7071977 3.23394589,36.8725171 3.23394589,35.8645857 L3.23394589,8.71357042 C3.23394589,7.72663762 3.21003132,6.89720655 3.16220146,6.22525231 C3.1143716,5.55329807 2.99001583,5.00734343 2.78913041,4.58737203 C2.588245,4.16740063 2.28213848,3.82617899 1.87080168,3.56369686 C1.45946488,3.30121474 0.890298082,3.06498437 0.163284203,2.85499867 L0.163284203,0.776150628 L15.2296149,0.776150628 L15.2296149,2.85499867 C14.2156219,3.16997722 13.5220993,3.51644843 13.1490264,3.89442269 C12.7759535,4.27239695 12.5128932,4.77110551 12.3598376,5.39056332 C12.2067821,6.01002114 12.1302555,7.12817822 12.1302555,8.74506811 L12.1302555,19.2652991 L25.1016488,19.2652991 L25.1016488,8.74506811 C25.1016488,7.14917679 25.0394709,6.04151884 24.9151132,5.42206102 C24.7907556,4.8026032 24.5420441,4.29864508 24.1689711,3.91017154 C23.7958982,3.52169799 23.0928098,3.16997722 22.0596848,2.85499867 L22.0596848,0.776150628 L37.0399222,0.776150628 L37.0399222,2.85499867 C36.1981167,3.10698151 35.5859037,3.37470926 35.2032648,3.65818996 C34.8206259,3.94167065 34.5479998,4.30389055 34.3853783,4.74486052 C34.2227567,5.18583049 34.1175326,5.67928949 34.0697028,6.22525231 C34.0218729,6.77121513 33.9979583,7.61114533 33.9979583,8.74506811 L33.9979583,35.8645857 C33.9979583,37.4814756 34.0601362,38.5891336 34.1844938,39.1875928 C34.3088515,39.7860521 34.5623459,40.2847606 34.9449848,40.6837335 Z M51.7817334,33.439263 C51.5138861,34.2792058 51.2938721,35.0928882 51.1216846,35.8803346 C50.9494971,36.6677809 50.8634046,37.5024616 50.8634046,38.3844015 C50.8634046,40.4422614 51.8582508,41.5446698 53.847973,41.6916598 L53.847973,43.7705078 L41.594024,43.7705078 L41.594024,41.6916598 C42.301906,41.6076655 42.9236848,41.3346882 43.4593792,40.8727196 C43.9950737,40.4107511 44.4829309,39.7808034 44.9229657,38.9828578 C45.3630004,38.1849121 45.831726,37.0405072 46.3291565,35.5496087 L58.2961278,0.555666745 L65.9584331,0.555666745 L75.4286981,35.833088 C75.8496009,37.4079808 76.2035366,38.5261379 76.4905157,39.1875928 C76.7774949,39.8490478 77.1505622,40.3845033 77.6097289,40.7939754 C78.0688955,41.2034475 78.709806,41.5026726 79.5324796,41.6916598 L79.5324796,43.7705078 L63.6913091,43.7705078 L63.6913091,41.6916598 C64.6861702,41.5656684 65.422739,41.2611937 65.9010376,40.7782265 C66.3793362,40.2952594 66.6184819,39.6128161 66.6184819,38.7308762 C66.6184819,38.0799205 66.5515211,37.3554807 66.4175975,36.5575351 C66.2836739,35.7595894 66.0636598,34.7516732 65.7575487,33.5337561 L64.9827088,30.4469817 L52.7287599,30.4469817 L51.7817334,33.439263 Z M59.5588298,9.02854739 L53.8192752,26.7617511 L64.1504734,26.7617511 L59.5588298,9.02854739 Z M98.4740924,40.2270168 C98.6941098,40.5734932 99.0097821,40.8622192 99.4211189,41.0932035 C99.8324557,41.3241878 100.468583,41.5236712 101.329521,41.6916598 L101.329521,43.7705078 L85.8901191,43.7705078 L85.8901191,41.6916598 C86.598001,41.4816741 87.157602,41.2559428 87.5689388,41.0144593 C87.9802756,40.7729757 88.2863821,40.4370036 88.4872675,40.006533 C88.6881529,39.5760623 88.8172916,39.0301076 88.8746874,38.3686527 C88.9320833,37.7071977 88.9607807,36.8725171 88.9607807,35.8645857 L88.9607807,8.71357042 C88.9607807,7.72663762 88.9368662,6.89720655 88.8890363,6.22525231 C88.8412065,5.55329807 88.7168507,5.00734343 88.5159653,4.58737203 C88.3150799,4.16740063 88.0089733,3.82617899 87.5976365,3.56369686 C87.1862997,3.30121474 86.6171329,3.06498437 85.8901191,2.85499867 L85.8901191,0.776150628 L102.563525,0.776150628 C107.403907,0.776150628 111.029356,1.72632167 113.439981,3.62669226 C115.850606,5.52706285 117.0559,8.45106986 117.0559,12.398801 C117.0559,15.1916108 116.491516,17.6169093 115.362732,19.6747692 C114.233947,21.732629 112.59819,23.2917495 110.455413,24.3521773 C108.312635,25.412605 105.634203,25.942811 102.420036,25.942811 C100.564238,25.942811 99.0432709,25.9008145 97.8570903,25.8168202 L97.8570903,35.8960834 C97.8570903,37.281989 97.9049195,38.2636575 98.0005792,38.8411181 C98.0962389,39.4185788 98.2540751,39.8805404 98.4740924,40.2270168 Z M104.888045,21.359896 C106.016829,20.7614367 106.853839,19.8112657 107.3991,18.5093544 C107.94436,17.207443 108.216986,15.4540887 108.216986,13.2492389 C108.216986,11.0653876 107.94436,9.32778198 107.3991,8.03636992 C106.853839,6.74495786 106.055093,5.8262842 105.002836,5.28032138 C103.950579,4.73435856 102.601797,4.46138124 100.95645,4.46138124 C99.6172137,4.46138124 98.5841042,4.4823795 97.8570903,4.52437664 L97.8570903,22.2575804 L100.325099,22.2575804 C102.238293,22.2575804 103.75926,21.9583552 104.888045,21.359896 Z M136.547193,40.2270168 C136.76721,40.5734932 137.082883,40.8622192 137.494219,41.0932035 C137.905556,41.3241878 138.541684,41.5236712 139.402621,41.6916598 L139.402621,43.7705078 L123.963219,43.7705078 L123.963219,41.6916598 C124.671101,41.4816741 125.230702,41.2559428 125.642039,41.0144593 C126.053376,40.7729757 126.359482,40.4370036 126.560368,40.006533 C126.761253,39.5760623 126.890392,39.0301076 126.947788,38.3686527 C127.005184,37.7071977 127.033881,36.8725171 127.033881,35.8645857 L127.033881,8.71357042 C127.033881,7.72663762 127.009967,6.89720655 126.962137,6.22525231 C126.914307,5.55329807 126.789951,5.00734343 126.589066,4.58737203 C126.38818,4.16740063 126.082074,3.82617899 125.670737,3.56369686 C125.2594,3.30121474 124.690233,3.06498437 123.963219,2.85499867 L123.963219,0.776150628 L140.636625,0.776150628 C145.477007,0.776150628 149.102456,1.72632167 151.513081,3.62669226 C153.923706,5.52706285 155.129001,8.45106986 155.129001,12.398801 C155.129001,15.1916108 154.564617,17.6169093 153.435832,19.6747692 C152.307047,21.732629 150.671291,23.2917495 148.528513,24.3521773 C146.385735,25.412605 143.707303,25.942811 140.493137,25.942811 C138.637338,25.942811 137.116371,25.9008145 135.930191,25.8168202 L135.930191,35.8960834 C135.930191,37.281989 135.97802,38.2636575 136.07368,38.8411181 C136.169339,39.4185788 136.327175,39.8805404 136.547193,40.2270168 Z M142.961145,21.359896 C144.08993,20.7614367 144.92694,19.8112657 145.4722,18.5093544 C146.017461,17.207443 146.290087,15.4540887 146.290087,13.2492389 C146.290087,11.0653876 146.017461,9.32778198 145.4722,8.03636992 C144.92694,6.74495786 144.128193,5.8262842 143.075936,5.28032138 C142.023679,4.73435856 140.674897,4.46138124 139.02955,4.46138124 C137.690314,4.46138124 136.657205,4.4823795 135.930191,4.52437664 L135.930191,22.2575804 L138.398199,22.2575804 C140.311394,22.2575804 141.83236,21.9583552 142.961145,21.359896 Z M181.23513,38.4001504 C181.292526,38.9776111 181.39775,39.4448222 181.550805,39.8017979 C181.703861,40.1587736 181.890395,40.4474996 182.110412,40.6679846 C182.330429,40.8884696 182.636536,41.087953 183.028741,41.2664409 C183.420946,41.4449287 183.951849,41.5866669 184.621467,41.6916598 L184.621467,43.7705078 L168.780296,43.7705078 L168.780296,41.6916598 C169.564706,41.5446698 170.191268,41.3556855 170.660001,41.1247012 C171.128733,40.8937169 171.477886,40.5577449 171.707469,40.1167749 C171.937053,39.6758049 172.085323,39.1141016 172.152285,38.4316481 C172.219247,37.7491945 172.252727,36.8935157 172.252727,35.8645857 L172.252727,27.2342166 L164.475631,9.21753358 C163.806012,7.68463796 163.279892,6.55073219 162.897253,5.81578224 C162.457218,4.95484087 162.079368,4.33539234 161.763691,3.95741808 C161.448014,3.57944382 161.156256,3.31696563 160.888409,3.16997564 C160.620562,3.02298565 160.247494,2.91799438 159.769196,2.85499867 L159.769196,0.776150628 L175.065109,0.776150628 L175.065109,2.85499867 C173.591949,3.06498437 172.85538,3.86291806 172.85538,5.24882368 C172.85538,5.7947865 172.974953,6.44573241 173.214102,7.20168093 C173.453252,7.95762945 173.840668,8.9655457 174.376362,10.2254599 L179.226286,22.0685942 L184.477978,10.5089392 C184.994541,9.35401783 185.353259,8.39334766 185.554145,7.62689985 C185.75503,6.86045204 185.855471,6.0992653 185.855471,5.34331678 C185.855471,4.58736825 185.659372,3.99416755 185.267167,3.56369686 C184.874962,3.13322618 184.324927,2.89699581 183.617045,2.85499867 L183.617045,0.776150628 L195.124852,0.776150628 L195.124852,2.85499867 C194.608289,2.98099009 194.18261,3.15422569 193.847801,3.37471068 C193.512992,3.59519566 193.144708,3.94166687 192.742937,4.4141347 C192.341166,4.88660252 191.862874,5.59529363 191.308048,6.54022928 C190.753222,7.48516494 190.112311,8.71356286 189.385297,10.2254599 L181.149037,27.2342166 L181.149037,35.8645857 C181.149037,36.9775099 181.177734,37.8226897 181.23513,38.4001504 Z" id="HAPPY" fill="#E9D195"></path>
                    </g>
                </g>
            </g>
            <g id="sanskrit-element" transform="translate(230.000000, 434.000000)" sketch:type="MSShapeGroup">
                <circle id="background" stroke="#3A4C64" stroke-width="7" fill="#E9D195" cx="42.5" cy="42.5" r="42.5"></circle>
                <path d="M27.425192,69.5785949 C21.023722,67.2910333 16.3756206,61.5987746 14.5352598,53.7930546 C13.7000343,50.2503118 13.4638612,44.3962905 14.1562513,44.3962905 C14.3862899,44.3962905 15.0006777,46.0025934 15.52157,47.9658533 C16.6614504,52.2619012 18.6056725,56.3017066 20.4836868,58.2764051 C23.6031156,61.5563895 31.3295021,62.8409838 35.7813565,60.8197838 C39.249228,59.2453098 40.6555296,55.503165 39.147535,51.8624732 C37.982219,49.0491878 35.3385714,48.1084824 30.4142655,48.7548654 C30.4142655,48.7548654 27.3963778,45.5064019 26.4349168,39.7376358 L29.5282218,40.0181235 C33.253894,40.355957 36.0668697,39.5324036 37.5268477,37.6763888 C38.8987753,35.9322571 38.8691106,35.2577047 37.3423932,33.4828071 C35.1393632,30.9216413 31.1837054,31.5704401 23.174556,35.8065824 L19.13344,29.0324546 L20.8276335,27.7402252 C25.0732986,24.5018838 32.4452153,22.8829483 36.6405903,24.2675515 C40.4620325,25.5287336 43.2668647,30.5330557 42.5176264,34.7530848 C42.0110658,37.6061109 39.7233718,41.6020939 37.9559355,42.7211486 L36.4317053,43.6862215 L38.5371124,44.6356251 C42.1148733,46.2489472 44.2990232,45.0156648 46.9085584,39.9086878 C50.5199018,32.8412162 52.8621167,31.0116405 58.308583,31.00381 C60.8445616,31.0001605 61.7471573,31.2661776 63.5968252,32.5624026 C68.2131975,35.7974652 70.7268038,42.4965378 70.1747138,50.092924 C69.4753946,59.7137375 64.9183037,65.5492612 58.1045099,65.5492612 C54.3650344,65.5492612 51.9547074,64.2376963 50.0360265,61.1588409 C48.3507706,58.4544431 47.5913239,53.0983355 48.5591257,50.7421816 C49.0234337,49.6118306 49.1073593,49.5734908 49.1377128,50.4777689 C49.1935037,52.1402568 51.0848976,54.8423877 52.8213445,55.7403371 C57.0818163,57.9435144 63.1980396,55.1754539 65.6178348,49.9489437 C67.4550225,45.9808752 66.4693986,38.3270224 63.9474899,36.9773247 C63.4198817,36.6949543 62.1161176,36.4639255 61.0503253,36.4639255 C58.7847353,36.4639255 57.005506,38.0927166 54.5110431,42.4503079 C53.6486367,43.9568734 52.1972775,45.9034389 51.2857981,46.775999 C49.8048768,48.1937194 49.2760533,48.362473 46.3142141,48.362473 L42.9997547,48.362473 L44.0711007,50.7421816 C45.6045839,54.1483971 45.5320308,59.6827216 43.9097555,63.0518045 C42.4762713,66.0288826 39.1618135,69.0429061 36.5120343,69.7790085 C33.9325331,70.4955768 29.7319769,70.4029314 27.425192,69.5785949 L27.425192,69.5785949 Z M39.9065562,23.541386 C38.440339,21.0394916 37.5380049,16.3686032 38.5208767,16.3686032 C39.6753899,18.8732829 42.042047,21.1078292 44.576128,22.6670127 C49.1275591,24.8703109 53.7427144,23.9809819 58.7847899,19.9290457 C59.894792,19.0370408 60.8777698,18.4064662 60.9692047,18.5277678 C62.2003694,20.4383871 64.3300199,21.9997016 65.0339572,24.2199092 C65.0339572,25.1566752 61.0013565,27.8526796 57.8193692,29.0431995 C49.9325933,31.3151265 44.5648499,30.4163988 39.9065562,23.541386 L39.9065562,23.541386 Z M43.8809882,17.7580465 L49.0156611,12.0646255 L54.7218837,17.3469281 C52.770094,18.9544581 51.3611529,21.4492703 49.1313676,22.7144944 C47.3695016,21.415682 44.7398908,19.8842675 43.8809882,17.7580465 L43.8809882,17.7580465 Z" id="Shape" fill="#B53704"></path>
            </g>
        </g>
    </g>
</svg>