<?xml version="1.0" encoding="UTF-8" standalone="no"?>
<svg width="611px" height="634px" viewBox="0 0 611 634" version="1.1" xmlns="http://www.w3.org/2000/svg" xmlns:xlink="http://www.w3.org/1999/xlink" xmlns:sketch="http://www.bohemiancoding.com/sketch/ns">
    <!-- Generator: Sketch 3.3.3 (12081) - http://www.bohemiancoding.com/sketch -->
    <title>happy-yoga</title>
    <desc>Created with Sketch.</desc>
    <defs>
        <path id="path-1" d="M253.5,462 C364.233092,462 454,372.233092 454,261.5 C454,150.766908 364.233092,61 253.5,61 C142.766908,61 53,150.766908 53,261.5 C53,372.233092 142.766908,462 253.5,462 Z"></path>
    </defs>
    <g id="Page-1" stroke="none" stroke-width="1" fill="none" fill-rule="evenodd" sketch:type="MSPage">
        <g id="logo" sketch:type="MSLayerGroup">
            <path d="M220.543908,43.2330965 C242.075672,32.4945831 261.168539,6.881972 293.561412,1.80717607 C325.954285,-3.26761985 351.013006,13.5024133 373.032979,31.0255654 C395.052952,48.5487175 400.983761,43.2330965 426.841579,43.2330986 C452.699397,43.2331008 465.412658,43.2330965 488.746208,56.50901 C512.079757,69.7849235 528.495127,125.401882 528.495127,125.401882 C528.495127,125.401882 537.729592,154.051052 579.291251,179.319947 C620.85291,204.588843 614.985588,266.961977 597.138419,295.400978 C579.291251,323.839979 600.098352,347.887239 604.630202,358.225113 C609.162051,368.562986 624.465254,419.5649 576.48019,457.220851 C528.495127,494.876803 533.591816,491.238183 527.396099,513.871162 C521.200381,536.504141 498.67687,589.139272 445.980434,589.139274 C393.283998,589.139276 386.409598,591.722645 368.107055,606.268352 C349.804513,620.814059 308.715742,651.416081 261.9129,618.664165 C215.110059,585.912249 211.160563,587.440375 173.044861,587.440377 C134.929159,587.44038 96.7718607,566.751501 86.5609685,531.667978 C76.3500763,496.584456 76.9477537,489.539286 31.5635785,451.78701 C-13.8205967,414.034734 2.89908192,352.749673 12.0240817,338.14048 C21.1490814,323.531288 16.7135613,301.220134 4.07473568,268.137633 C-8.5640899,235.055133 9.97004264,192.344364 52.8435683,165.720019 C86.2084903,145.000492 83.029625,114.888865 86.2084906,103.922666 C89.3873563,92.956468 100.631587,60.1169775 145.507853,49.8951366 C190.38412,39.6732957 199.012143,53.9716099 220.543908,43.2330965 Z M228.961298,70.3808709 C248.358416,60.7069674 265.558427,37.6335756 294.739889,33.061892 C323.921352,28.4902084 346.495766,43.5976702 366.332692,59.3835873 C386.169617,75.1695043 391.512449,70.3808709 414.806738,70.3808728 C438.101027,70.3808747 449.553903,70.3808709 470.574178,82.340618 C491.594453,94.3003652 506.382413,144.403491 506.382413,144.403491 C506.382413,144.403491 514.701378,170.212399 552.142639,192.976151 C589.583899,215.739902 584.29826,271.929401 568.220449,297.548976 C552.142639,323.168551 570.886936,344.831779 574.969501,354.144762 C579.052065,363.457745 592.838117,409.403359 549.610265,443.326121 C506.382413,477.248883 510.973819,473.970994 505.392342,494.360153 C499.810864,514.749311 479.52032,562.166226 432.048178,562.166228 C384.576036,562.16623 378.38316,564.493485 361.895121,577.59714 C345.407082,590.700794 308.391828,618.268949 266.228993,588.764039 C224.066157,559.259128 220.508212,560.635758 186.171279,560.635759 C151.834345,560.635761 117.459939,541.997966 108.261349,510.392603 C99.0627588,478.787241 99.6011828,472.440525 58.7163683,438.430988 C17.8315537,404.42145 32.8936531,349.212154 41.1140057,336.051309 C49.3343583,322.890463 45.3385731,302.791224 33.9527533,272.988503 C22.5669335,243.185782 39.2636029,204.709334 77.8866723,180.724512 C107.943815,162.059107 105.080101,134.932728 107.943816,125.053712 C110.80753,115.174696 120.937014,85.5908937 161.364274,76.3824402 C201.791534,67.1739867 209.56418,80.0547743 228.961298,70.3808709 Z" id="outer-border" fill="#FFFFFF" sketch:type="MSShapeGroup"></path>
            <path d="M228.361104,68.4451237 C247.910431,58.6953093 265.24541,35.4408608 294.655859,30.8333032 C324.066309,26.2257456 346.817864,41.4517555 366.810449,57.3615445 C386.803035,73.2713335 392.187793,68.4451237 415.664871,68.4451257 C439.14195,68.4451276 450.684697,68.4451237 471.869918,80.4987189 C493.055139,92.5523141 507.95914,143.048599 507.95914,143.048599 C507.95914,143.048599 516.343384,169.060029 554.078445,192.002407 C591.813507,214.944786 586.486391,271.575203 570.282418,297.395815 C554.078445,323.216426 572.969829,345.049646 577.08443,354.435708 C581.19903,363.82177 595.093261,410.127918 551.5262,444.316872 C507.95914,478.505826 512.586574,475.202215 506.961299,495.751367 C501.336024,516.30052 480.88626,564.089515 433.041605,564.089516 C385.19695,564.089518 378.955478,566.435036 362.338057,579.641514 C345.720637,592.847993 308.414925,620.632475 265.921238,590.89604 C223.427551,561.159605 219.841687,562.547036 185.235311,562.547038 C150.628936,562.54704 115.984795,543.762994 106.714023,511.909624 C97.4432518,480.056255 97.9859008,473.659737 56.7802635,439.383327 C15.5746262,405.106917 30.7549178,349.464394 39.0397754,336.200275 C47.324633,322.936156 43.2974929,302.679198 31.8223286,272.642616 C20.3471644,242.606034 37.1748525,203.827661 76.1009968,179.65463 C106.393998,160.842758 103.507812,133.503519 106.393998,123.546982 C109.280185,113.590446 119.489154,83.7744995 160.233647,74.4937873 C200.978139,65.2130751 208.811777,78.1949382 228.361104,68.4451237 Z M236.003502,93.0933924 C253.61472,84.3101689 269.231119,63.3611528 295.725834,59.2103858 C322.220548,55.0596188 342.716527,68.776131 360.72706,83.1086328 C378.737593,97.4411346 383.588508,93.0933924 404.738083,93.0933942 C425.887658,93.0933959 436.286064,93.0933924 455.370994,103.952001 C474.455925,114.81061 487.882351,160.300723 487.882351,160.300723 C487.882351,160.300723 495.435386,183.733394 529.429416,204.401279 C563.423446,225.069164 558.624457,276.085274 544.026937,299.346045 C529.429416,322.606817 546.447919,342.275504 550.1546,350.731037 C553.861282,359.18657 566.378047,400.901954 527.130199,431.701435 C487.882351,462.500916 492.051025,459.524823 486.983436,478.036744 C481.915848,496.548666 463.493461,539.599887 420.392097,539.599889 C377.290733,539.599891 371.668038,541.712875 356.698058,553.610071 C341.728079,565.507267 308.120833,590.537212 269.839946,563.74883 C231.559058,536.960447 228.328694,538.21033 197.153175,538.210331 C165.977656,538.210333 134.768115,521.288526 126.416442,492.593081 C118.064769,463.897636 118.55362,458.135265 81.4330858,427.256998 C44.3125513,396.378732 57.9878777,346.252576 65.4513794,334.303454 C72.914881,322.354333 69.2869892,304.105638 58.9494661,277.046864 C48.6119429,249.988091 63.7713438,215.054184 98.8383728,193.277653 C126.128144,176.330779 123.528092,151.701936 126.128144,142.732485 C128.728195,133.763034 137.925054,106.903023 174.630161,98.542395 C211.335268,90.1817672 218.392284,101.876616 236.003502,93.0933924 Z" id="outer-border" fill="#E9D195" sketch:type="MSShapeGroup"></path>
            <g id="inner-logo" transform="translate(53.000000, 57.000000)">
                <path d="M181.708991,35.1790729 C199.394897,26.3586004 215.077524,5.32074137 241.684601,1.1523713 C268.291677,-3.01599876 288.874578,10.758684 306.961492,25.1519687 C325.048406,39.5452535 329.919893,35.1790729 351.159162,35.1790746 C372.39843,35.1790764 382.840935,35.1790729 402.006803,46.0837321 C421.172671,56.9883914 434.656038,102.671424 434.656038,102.671424 C434.656038,102.671424 442.241105,126.203471 476.3793,146.959007 C510.517496,167.714543 505.698155,218.947008 491.038728,242.306426 C476.3793,265.665844 493.469977,285.417945 497.192379,293.909337 C500.91478,302.400729 513.484627,344.293025 474.070333,375.223124 C434.656038,406.153223 438.842391,403.164509 433.753311,421.754937 C428.664231,440.345366 410.163717,483.579165 366.879564,483.579166 C323.59541,483.579168 317.948869,485.701113 302.915403,497.648764 C287.881938,509.596415 254.132167,534.73251 215.688933,507.83052 C177.2457,480.928531 174.001636,482.183714 142.693904,482.183715 C111.386172,482.183717 80.0442734,465.190146 71.657182,436.373006 C63.2700905,407.555867 63.7610149,401.769058 26.4830553,370.759839 C-10.7949043,339.75062 2.93841799,289.411883 10.4335718,277.412086 C17.9287255,265.412289 14.2854481,247.086203 3.9040844,219.912676 C-6.4772793,192.739149 8.74641134,157.65709 43.9621567,135.788207 C71.3676611,118.769462 68.7565833,94.0361705 71.3676613,85.0286806 C73.9787394,76.0211907 83.2146011,49.0472688 120.075371,40.6511843 C156.936141,32.2550998 164.023086,43.9995454 181.708991,35.1790729 Z" id="inner-background" fill="#3A4C64" sketch:type="MSShapeGroup"></path>
                <path d="M252.5,484 C375.383357,484 475,384.383357 475,261.5 C475,138.616643 375.383357,39 252.5,39 C129.616643,39 30,138.616643 30,261.5 C30,384.383357 129.616643,484 252.5,484 Z M253,470 C367.875228,470 461,376.875228 461,262 C461,147.124772 367.875228,54 253,54 C138.124772,54 45,147.124772 45,262 C45,376.875228 138.124772,470 253,470 Z" id="inner-ring" fill="#E9D195" sketch:type="MSShapeGroup"></path>
                <mask id="mask-2" sketch:name="texture-mask" fill="white">
                    <use xlink:href="#path-1"></use>
                </mask>
                <use id="texture-mask" sketch:type="MSShapeGroup" xlink:href="#path-1"></use>
                <g id="masked-texture" mask="url(#mask-2)">
                    <g transform="translate(45.000000, 60.000000)">
                        <g id="lines" stroke-width="1" fill="none" sketch:type="MSLayerGroup" transform="translate(9.000000, 0.000000)">
                            <circle id="Oval-5" fill="#6894C3" sketch:type="MSShapeGroup" cx="201.5" cy="201.5" r="201.5"></circle>
                        </g>
                        <rect id="red-contrast" fill="#B53704" sketch:type="MSShapeGroup" x="0" y="158" width="416" height="107"></rect>
                    </g>
                </g>
                <g id="-yogi" mask="url(#mask-2)" sketch:type="MSShapeGroup">
                    <g transform="translate(75.000000, 159.000000)">
                        <path d="M114.224609,113.055664 C104.879883,132.175781 106.789795,149.504639 111.730957,158.499023 C128.797363,161.643555 139.80298,153.871338 139.80298,153.871338 C139.80298,153.871338 143.695803,156.608887 152.031252,155.544922 C160.366701,154.480957 172.741697,144.652344 181.648191,135.324463 C177.297605,146.652344 179.900146,153.044922 183.000975,159.720215 C194.86865,161.213379 209.242187,148.19165 213.615477,145.4729 C210.989502,152.581543 204.877928,167.554688 170.528809,194.437012 C138.585449,220.040527 138.702881,237.095459 138.702881,241.841553 C138.702881,246.587647 143.620363,259.968018 164.355957,249.328125 C182.167725,239.254395 189.5874,223.636475 195.449949,213.819824 C201.312498,204.003174 210.731936,184.424805 229.228516,160.802734 C237.340818,153.112549 253.882811,139.481445 260.653318,139.481445 C261.916992,147.428711 261.581334,154.497954 268.108396,158.499023 C274.870117,160.013672 285.157227,148.030273 296.866209,143.761719 C296.236328,151.047852 292.643555,157.834961 299.144529,159.720215 C320.423826,158.499023 332.699217,144.880371 331.067381,136.533203 C325.036133,139.537598 323.154297,144.291992 319.271482,144.880371 C321.223633,129.268555 342.230469,118.012695 351.014646,88.7578125 C343.969727,87.1171875 340.606514,87.0164508 338.455076,86.9453125 C339.977537,80.765625 337.974607,74.5057099 337.974607,71.6171875 C309.903318,73.4052734 298.85449,75.293213 264.021238,123.001708 C250.404047,137.286378 250.783447,135.591309 237.34082,144.880371 C231.800779,150.012209 235.16748,142.487549 237.622312,138.186038 C250.510742,114.041504 266.474365,92.496582 273.700925,75.2932129 C265.748779,76.6149902 262.382812,77.5349121 256.11865,78.3859865 C241.282956,73.8562011 230.741205,77.7944331 220.871579,82.5014644 C211.001953,87.2084956 194.971682,103.978271 188.488281,115.222656 C183.525879,122.068848 164.456787,146.963623 154.199709,144.880371 C158.29248,141.967041 169.214113,132.230225 178.564207,118.544678 C187.914301,104.859131 190.094969,85.5874018 181.029783,77.5947266 C165.071777,76.6738281 162.23755,87.4733889 162.23755,87.4733889 C162.23755,87.4733889 167.240479,85.5710449 169.602297,91.5678711 C167.339111,99.1774902 170.010986,131.426514 130.507812,149.504642 C127.05542,129.552002 131.696045,106.574707 155.659425,84.4316407 C169.674316,74.6643066 169.856935,73.1894531 169.856935,71.6171875 C164.062988,72.517334 135.162353,79.5778804 114.224609,113.055664 Z M201.08081,144.845704 C203.205811,131.816408 211.734043,99.3976602 241.558594,85.0322266 C242.112227,84.7655606 245.827637,84.7583008 245.321532,88.0156249 C235.290771,118.516846 204.906738,139.072267 201.08081,144.845704 Z M291.671875,136.127931 C290.326172,128.911131 298.553711,105.99707 324.558594,84.0322266 C325.061184,83.6077172 327.702392,84.1938477 327.196287,87.4511718 C317.165526,117.952393 297.36914,136.127932 291.671875,136.127931 Z M189.358152,190.721924 C185.681641,201.203369 166.487305,225.46167 159.613525,232.230469 C155.708008,234.387939 154.608643,232.198486 155.639893,229.701416 C156.671143,227.204346 176.689453,194.580078 189.358152,190.721924 Z M3.1201172,107.856443 C-3.39257812,52.3828125 46.5385742,3.15917969 85.057128,4.61132812 C107.402346,2.64257812 118.791992,19.7226562 107.402343,42.699707 C102.338869,53.1625994 94.3724709,61.0432378 90.8173819,66.5 C83.1464844,86.4521484 69.2084961,110.289551 61.3916007,122.15332 C54.203125,136.609863 52.796875,142.046387 51.3432608,147.09375 C56.2255859,144.253418 71.5146484,136.588867 89.5371085,110.979492 C115.732421,67.4277344 115.870116,62.5703125 140.554206,14.706543 C152.380622,12.7336426 167.715827,10.1374512 167.715827,10.1374512 C167.715827,10.1374512 134.660647,66.6425754 109.858889,112.312986 C85.057131,157.983396 36.8095685,246.346677 36.8095685,246.346677 L19.3471681,246.346677 C19.3471681,246.346677 63.4042969,159.527344 66.0351545,153.552732 C59.2558594,154.895996 49.222168,165.923828 37.6191389,165.738767 C27.0859349,161.637204 30.5336896,145.225583 36.8095685,125.620603 C43.0854475,106.015622 88.0527364,42.6997081 88.0527364,24.3222648 C78.8764669,11.029297 54.5576154,24.3222648 54.5576154,24.3222648 C54.5576154,24.3222648 20.0947267,47.3686535 21.2270509,94.5058567 C34.0776367,91.8330078 41.5214844,84.5463867 49.5332014,74.1552707 C62.65625,52.8686523 70.8725921,35.5273506 77.0195333,32.0937492 C74.5698242,52.5625 40.6240234,124.461426 3.1201172,107.856443 Z" id="shadow" fill="#293D4E"></path>
                        <path d="M112.224609,109.055664 C102.879883,128.175781 104.789795,145.504639 109.730957,154.499023 C126.797363,157.643555 137.80298,149.871338 137.80298,149.871338 C137.80298,149.871338 141.695803,152.608887 150.031252,151.544922 C158.366701,150.480957 170.741697,140.652344 179.648191,131.324463 C175.297605,142.652344 177.900146,149.044922 181.000975,155.720215 C192.86865,157.213379 207.242187,144.19165 211.615477,141.4729 C208.989502,148.581543 202.877928,163.554688 168.528809,190.437012 C136.585449,216.040527 136.702881,233.095459 136.702881,237.841553 C136.702881,242.587647 141.620363,255.968018 162.355957,245.328125 C180.167725,235.254395 187.5874,219.636475 193.449949,209.819824 C199.312498,200.003174 208.731936,180.424805 227.228516,156.802734 C235.340818,149.112549 251.882811,135.481445 258.653318,135.481445 C259.916992,143.428711 259.581334,150.497954 266.108396,154.499023 C272.870117,156.013672 283.157227,144.030273 294.866209,139.761719 C294.236328,147.047852 290.643555,153.834961 297.144529,155.720215 C318.423826,154.499023 330.699217,140.880371 329.067381,132.533203 C323.036133,135.537598 321.154297,140.291992 317.271482,140.880371 C319.223633,125.268555 340.230469,114.012695 349.014646,84.7578125 C341.969727,83.1171875 338.606514,83.0164508 336.455076,82.9453125 C337.977537,76.765625 335.974607,70.5057099 335.974607,67.6171875 C307.903318,69.4052734 296.85449,71.293213 262.021238,119.001708 C248.404047,133.286378 248.783447,131.591309 235.34082,140.880371 C229.800779,146.012209 233.16748,138.487549 235.622312,134.186038 C248.510742,110.041504 264.474365,88.496582 271.700925,71.2932129 C263.748779,72.6149902 260.382812,73.5349121 254.11865,74.3859865 C239.282956,69.8562011 228.741205,73.7944331 218.871579,78.5014644 C209.001953,83.2084956 192.971682,99.9782715 186.488281,111.222656 C181.525879,118.068848 162.456787,142.963623 152.199709,140.880371 C156.29248,137.967041 167.214113,128.230225 176.564207,114.544678 C185.914301,100.859131 188.094969,81.5874018 179.029783,73.5947266 C163.071777,72.6738281 160.23755,83.4733889 160.23755,83.4733889 C160.23755,83.4733889 165.240479,81.5710449 167.602297,87.5678711 C165.339111,95.1774902 168.010986,127.426514 128.507812,145.504642 C125.05542,125.552002 129.696045,102.574707 153.659425,80.4316407 C167.674316,70.6643066 167.856935,69.1894531 167.856935,67.6171875 C162.062988,68.517334 133.162353,75.5778804 112.224609,109.055664 Z M199.08081,140.845704 C201.205811,127.816408 209.734043,95.3976602 239.558594,81.0322266 C240.112227,80.7655606 243.827637,80.7583008 243.321532,84.0156249 C233.290771,114.516846 202.906738,135.072267 199.08081,140.845704 Z M289.671875,132.127931 C288.326172,124.911131 296.553711,101.99707 322.558594,80.0322266 C323.061184,79.6077172 325.702392,80.1938477 325.196287,83.4511718 C315.165526,113.952393 295.36914,132.127932 289.671875,132.127931 Z M187.358152,186.721924 C183.681641,197.203369 164.487305,221.46167 157.613525,228.230469 C153.708008,230.387939 152.608643,228.198486 153.639893,225.701416 C154.671143,223.204346 174.689453,190.580078 187.358152,186.721924 Z M1.1201172,103.856443 C-5.39257812,48.3828125 44.5385742,-0.840820313 83.057128,0.611328125 C105.402346,-1.35742188 116.791992,15.7226562 105.402343,38.699707 C100.338869,49.1625994 92.3724709,57.0432378 88.8173819,62.5 C81.1464844,82.4521484 67.2084961,106.289551 59.3916007,118.15332 C52.203125,132.609863 50.796875,138.046387 49.3432608,143.09375 C54.2255859,140.253418 69.5146484,132.588867 87.5371085,106.979492 C113.732421,63.4277344 113.870116,58.5703125 138.554206,10.706543 C150.380622,8.73364258 165.715827,6.13745117 165.715827,6.13745117 C165.715827,6.13745117 132.660647,62.6425754 107.858889,108.312986 C83.057131,153.983396 34.8095685,242.346677 34.8095685,242.346677 L17.3471681,242.346677 C17.3471681,242.346677 61.4042969,155.527344 64.0351545,149.552732 C57.2558594,150.895996 47.222168,161.923828 35.6191389,161.738767 C25.0859349,157.637204 28.5336896,141.225583 34.8095685,121.620603 C41.0854475,102.015622 86.0527364,38.6997081 86.0527364,20.3222648 C76.8764669,7.02929703 52.5576154,20.3222648 52.5576154,20.3222648 C52.5576154,20.3222648 18.0947267,43.3686535 19.2270509,90.5058567 C32.0776367,87.8330078 39.5214844,80.5463867 47.5332014,70.1552707 C60.65625,48.8686523 68.8725921,31.5273506 75.0195333,28.0937492 C72.5698242,48.5625 38.6240234,120.461426 1.1201172,103.856443 Z" id="yogi" fill="#E9D195"></path>
                    </g>
                </g>
                <g id="shadow-+-HAPPY" mask="url(#mask-2)" sketch:type="MSShapeGroup">
                    <g transform="translate(139.000000, 97.000000)">
                        <path d="M44.6187259,50.1069914 C45.0686631,50.5753509 45.8897861,50.9697529 47.0821196,51.2902093 L47.0821196,53.7305961 L29.4671671,53.7305961 L29.4671671,51.2902093 C30.7719849,50.9204519 31.6156045,50.5507 31.9980511,50.1809426 C32.3804977,49.8111851 32.6504559,49.28737 32.807934,48.6094813 C32.965412,47.9315927 33.0441498,46.5450232 33.0441498,44.4497311 L33.0441498,29.6225323 L17.7913557,29.6225323 L17.7913557,44.4497311 C17.7913557,45.3124984 17.8138522,46.1136275 17.8588459,46.8531423 C17.9038396,47.5926572 17.9938257,48.1965853 18.1288069,48.6649447 C18.263788,49.1333041 18.4606326,49.5277061 18.7193465,49.8481625 C18.9780603,50.168619 19.3323805,50.4459329 19.7823177,50.6801126 C20.2322549,50.9142923 20.7834197,51.1176558 21.4358286,51.2902093 L21.4358286,53.7305961 L3.71964072,53.7305961 L3.71964072,51.2902093 C4.5520245,51.0437043 5.21004776,50.7787155 5.69373023,50.4952348 C6.1774127,50.2117541 6.53735704,49.8173521 6.77357406,49.3120169 C7.00979108,48.8066818 7.1616426,48.1657785 7.22913318,47.3892879 C7.29662375,46.6127973 7.33036854,45.6329548 7.33036854,44.4497311 L7.33036854,12.5768001 C7.33036854,11.4182268 7.30224788,10.4445468 7.24600574,9.65573097 C7.18976359,8.86691512 7.0435362,8.22601186 6.80731918,7.73300195 C6.57110216,7.23999205 6.21115781,6.83942751 5.72747535,6.53129632 C5.24379288,6.22316513 4.57452136,5.94585121 3.71964072,5.69934626 L3.71964072,3.25895943 L21.4358286,3.25895943 L21.4358286,5.69934626 C20.2434951,6.06910369 19.4279962,6.47583076 18.9893074,6.91953968 C18.5506187,7.36324859 18.2412915,7.94868907 18.0613166,8.67587868 C17.8813417,9.40306829 17.7913557,10.7156875 17.7913557,12.6137756 L17.7913557,24.963612 L33.0441498,24.963612 L33.0441498,12.6137756 C33.0441498,10.740338 32.9710361,9.44004385 32.8248065,8.71285424 C32.6785769,7.98566463 32.3861222,7.39406162 31.9474334,6.93802746 C31.5087447,6.48199329 30.6819975,6.06910369 29.4671671,5.69934626 L29.4671671,3.25895943 L47.0821196,3.25895943 L47.0821196,5.69934626 C46.0922578,5.9951522 45.3723691,6.30944131 44.922432,6.64222299 C44.4724948,6.97500468 44.1519193,7.40021934 43.960696,7.91787974 C43.7694727,8.43554014 43.6457419,9.01481809 43.5894997,9.65573097 C43.5332576,10.2966438 43.5051369,11.2826489 43.5051369,12.6137756 L43.5051369,44.4497311 C43.5051369,46.3478192 43.5782506,47.6481133 43.7244802,48.3506524 C43.8707098,49.0531916 44.1687887,49.638632 44.6187259,50.1069914 Z M64.4167116,41.6026131 C64.1017556,42.5886329 63.8430456,43.5438253 63.6405738,44.4682188 C63.4381021,45.3926124 63.3368678,46.3724549 63.3368678,47.4077757 C63.3368678,49.8235242 64.5066869,51.1176558 66.8463602,51.2902093 L66.8463602,53.7305961 L52.4371941,53.7305961 L52.4371941,51.2902093 C53.2695779,51.1916073 54.0007148,50.8711557 54.6306269,50.3288448 C55.2605389,49.7865339 55.8342002,49.0470301 56.351628,48.1103113 C56.8690557,47.1735925 57.4202205,45.8301606 58.0051388,44.0799755 L72.0768538,3.00013053 L81.0868007,3.00013053 L92.2226903,44.4127555 C92.7176212,46.2615427 93.1338068,47.5741618 93.4712597,48.3506524 C93.8087126,49.127143 94.2473948,49.7557212 94.7873194,50.2364059 C95.327244,50.7170906 96.0808775,51.0683548 97.0482424,51.2902093 L97.0482424,53.7305961 L78.4209363,53.7305961 L78.4209363,51.2902093 C79.590773,51.1423063 80.456889,50.7848795 81.0193105,50.2179181 C81.581732,49.6509567 81.8629385,48.8498276 81.8629385,47.8145068 C81.8629385,47.0503415 81.7842007,46.1999122 81.6267227,45.2631933 C81.4692447,44.3264745 81.2105347,43.1432685 80.8505849,41.7135398 L79.9394667,38.0899351 L65.5303005,38.0899351 L64.4167116,41.6026131 Z M73.561639,12.9465556 L66.8126151,33.7637948 L78.9608582,33.7637948 L73.561639,12.9465556 Z M119.321295,49.5708459 C119.580008,49.977579 119.951201,50.3165182 120.434884,50.5876737 C120.918566,50.8588291 121.666575,51.0930053 122.678934,51.2902093 L122.678934,53.7305961 L104.52406,53.7305961 L104.52406,51.2902093 C105.356443,51.0437043 106.014467,50.7787155 106.498149,50.4952348 C106.981832,50.2117541 107.341776,49.8173521 107.577993,49.3120169 C107.81421,48.8066818 107.966061,48.1657785 108.033552,47.3892879 C108.101043,46.6127973 108.134787,45.6329548 108.134787,44.4497311 L108.134787,12.5768001 C108.134787,11.4182268 108.106667,10.4445468 108.050425,9.65573097 C107.994182,8.86691512 107.847955,8.22601186 107.611738,7.73300195 C107.375521,7.23999205 107.015577,6.83942751 106.531894,6.53129632 C106.048212,6.22316513 105.37894,5.94585121 104.52406,5.69934626 L104.52406,3.25895943 L124.129974,3.25895943 C129.82168,3.25895943 134.08477,4.37437761 136.919375,6.60524743 C139.753979,8.83611725 141.17126,12.2686472 141.17126,16.9029403 C141.17126,20.1814562 140.507612,23.0285457 139.180298,25.4442942 C137.852983,27.8600428 135.92953,29.6903146 133.409882,30.9351646 C130.890234,32.1800146 127.740721,32.8024303 123.961249,32.8024303 C121.779053,32.8024303 119.99058,32.75313 118.595775,32.6545281 L118.595775,44.4867066 C118.595775,46.1136393 118.652016,47.2660327 118.7645,47.9439213 C118.876984,48.6218099 119.062581,49.1641127 119.321295,49.5708459 Z M126.863329,27.4224866 C128.190644,26.7199475 129.174866,25.6045293 129.816027,24.0761986 C130.457187,22.5478679 130.777763,20.4895824 130.777763,17.9012804 C130.777763,15.3376289 130.457187,13.297831 129.816027,11.7818256 C129.174866,10.2658201 128.235637,9.18737711 126.998309,8.54646423 C125.760982,7.90555135 124.174977,7.58509972 122.240247,7.58509972 C120.665467,7.58509972 119.450655,7.60974985 118.595775,7.65905084 L118.595775,28.47629 L121.497855,28.47629 C123.747541,28.47629 125.536014,28.1250257 126.863329,27.4224866 Z M164.090669,49.5708459 C164.349383,49.977579 164.720575,50.3165182 165.204258,50.5876737 C165.68794,50.8588291 166.43595,51.0930053 167.448308,51.2902093 L167.448308,53.7305961 L149.293434,53.7305961 L149.293434,51.2902093 C150.125818,51.0437043 150.783841,50.7787155 151.267523,50.4952348 C151.751206,50.2117541 152.11115,49.8173521 152.347367,49.3120169 C152.583584,48.8066818 152.735436,48.1657785 152.802926,47.3892879 C152.870417,46.6127973 152.904162,45.6329548 152.904162,44.4497311 L152.904162,12.5768001 C152.904162,11.4182268 152.876041,10.4445468 152.819799,9.65573097 C152.763557,8.86691512 152.617329,8.22601186 152.381112,7.73300195 C152.144895,7.23999205 151.784951,6.83942751 151.301269,6.53129632 C150.817586,6.22316513 150.148315,5.94585121 149.293434,5.69934626 L149.293434,3.25895943 L168.899349,3.25895943 C174.591054,3.25895943 178.854145,4.37437761 181.688749,6.60524743 C184.523353,8.83611725 185.940634,12.2686472 185.940634,16.9029403 C185.940634,20.1814562 185.276987,23.0285457 183.949672,25.4442942 C182.622357,27.8600428 180.698905,29.6903146 178.179256,30.9351646 C175.659608,32.1800146 172.510095,32.8024303 168.730623,32.8024303 C166.548428,32.8024303 164.759954,32.75313 163.365149,32.6545281 L163.365149,44.4867066 C163.365149,46.1136393 163.42139,47.2660327 163.533874,47.9439213 C163.646359,48.6218099 163.831955,49.1641127 164.090669,49.5708459 Z M171.632703,27.4224866 C172.960018,26.7199475 173.944241,25.6045293 174.585401,24.0761986 C175.226562,22.5478679 175.547137,20.4895824 175.547137,17.9012804 C175.547137,15.3376289 175.226562,13.297831 174.585401,11.7818256 C173.944241,10.2658201 173.005011,9.18737711 171.767684,8.54646423 C170.530356,7.90555135 168.944352,7.58509972 167.009622,7.58509972 C165.434842,7.58509972 164.22003,7.60974985 163.365149,7.65905084 L163.365149,28.47629 L166.267229,28.47629 C168.516915,28.47629 170.305389,28.1250257 171.632703,27.4224866 Z M216.638293,47.4262635 C216.705784,48.1041521 216.829515,48.6526174 217.00949,49.0716758 C217.189465,49.4907342 217.408806,49.8296735 217.66752,50.0885037 C217.926233,50.3473339 218.286178,50.5815101 218.747363,50.7910393 C219.208549,51.0005685 219.832827,51.1669568 220.620218,51.2902093 L220.620218,53.7305961 L201.992911,53.7305961 L201.992911,51.2902093 C202.915283,51.1176558 203.652044,50.8958047 204.203217,50.6246493 C204.75439,50.3534938 205.164951,49.9590918 205.434914,49.4414314 C205.704876,48.923771 205.879224,48.2643801 205.957963,47.463239 C206.036702,46.6620979 206.076071,45.6576053 206.076071,44.4497311 L206.076071,34.3184282 L196.931143,13.168409 C196.143753,11.3689228 195.525099,10.037816 195.075162,9.17504872 C194.557734,8.16437841 194.113428,7.43719971 193.74223,6.99349079 C193.371031,6.54978188 193.02796,6.24165531 192.713003,6.06910184 C192.398047,5.89654838 191.959365,5.77329775 191.396944,5.69934626 L191.396944,3.25895943 L209.383093,3.25895943 L209.383093,5.69934626 C207.650835,5.94585121 206.784718,6.88255598 206.784718,8.50948867 C206.784718,9.15040155 206.925322,9.91455544 207.206532,10.8019733 C207.487743,11.6893911 207.943298,12.8725971 208.57321,14.3516268 L214.276135,28.2544367 L220.451492,14.6844069 C221.058907,13.3286296 221.480717,12.2008864 221.716934,11.3011433 C221.953151,10.4014002 222.071258,9.50783317 222.071258,8.62041535 C222.071258,7.73299752 221.840668,7.03663147 221.379483,6.53129632 C220.918297,6.02596116 220.271522,5.74864725 219.439138,5.69934626 L219.439138,3.25895943 L232.970931,3.25895943 L232.970931,5.69934626 C232.363516,5.84724923 231.862969,6.05061277 231.469274,6.30944297 C231.075578,6.56827317 230.64252,6.97500024 230.170086,7.52963638 C229.697652,8.08427253 229.135239,8.91621426 228.48283,10.0254865 C227.830422,11.1347588 227.076788,12.5767912 226.221907,14.3516268 L216.537058,34.3184282 L216.537058,44.4497311 C216.537058,45.7562073 216.570803,46.7483749 216.638293,47.4262635 Z" id="shadow" fill="#293D4E"></path>
                        <path d="M41.0910877,47.7591654 C41.5410249,48.2275248 42.3621479,48.6219268 43.5544814,48.9423832 L43.5544814,51.38277 L25.9395289,51.38277 L25.9395289,48.9423832 C27.2443467,48.5726258 28.0879663,48.2028739 28.4704129,47.8331165 C28.8528595,47.463359 29.1228178,46.9395439 29.2802958,46.2616553 C29.4377738,45.5837666 29.5165116,44.1971971 29.5165116,42.101905 L29.5165116,27.2747062 L14.2637175,27.2747062 L14.2637175,42.101905 C14.2637175,42.9646723 14.286214,43.7658014 14.3312077,44.5053162 C14.3762014,45.2448311 14.4661875,45.8487592 14.6011687,46.3171186 C14.7361498,46.785478 14.9329944,47.17988 15.1917083,47.5003364 C15.4504221,47.8207929 15.8047424,48.0981068 16.2546795,48.3322865 C16.7046167,48.5664662 17.2557815,48.7698297 17.9081904,48.9423832 L17.9081904,51.38277 L0.19200253,51.38277 L0.19200253,48.9423832 C1.02438631,48.6958783 1.68240957,48.4308894 2.16609204,48.1474087 C2.6497745,47.863928 3.00971885,47.469526 3.24593587,46.9641909 C3.48215289,46.4588557 3.63400441,45.8179524 3.70149499,45.0414618 C3.76898556,44.2649712 3.80273034,43.2851288 3.80273034,42.101905 L3.80273034,10.228974 C3.80273034,9.07040069 3.77460969,8.09672073 3.71836755,7.30790488 C3.6621254,6.51908903 3.51589801,5.87818577 3.27968099,5.38517587 C3.04346397,4.89216596 2.68351962,4.49160142 2.19983716,4.18347023 C1.71615469,3.87533904 1.04688317,3.59802513 0.19200253,3.35152017 L0.19200253,0.911133346 L17.9081904,0.911133346 L17.9081904,3.35152017 C16.7158569,3.7212776 15.900358,4.12800467 15.4616692,4.57171359 C15.0229805,5.0154225 14.7136533,5.60086298 14.5336784,6.3280526 C14.3537036,7.05524221 14.2637175,8.36786139 14.2637175,10.2659495 L14.2637175,22.6157859 L29.5165116,22.6157859 L29.5165116,10.2659495 C29.5165116,8.39251188 29.4433979,7.09221776 29.2971683,6.36502815 C29.1509387,5.63783854 28.858484,5.04623553 28.4197952,4.59020137 C27.9811065,4.13416721 27.1543593,3.7212776 25.9395289,3.35152017 L25.9395289,0.911133346 L43.5544814,0.911133346 L43.5544814,3.35152017 C42.5646196,3.64732612 41.8447309,3.96161522 41.3947938,4.2943969 C40.9448566,4.62717859 40.6242811,5.05239326 40.4330578,5.57005366 C40.2418345,6.08771406 40.1181037,6.66699201 40.0618615,7.30790488 C40.0056194,7.94881776 39.9774987,8.93482278 39.9774987,10.2659495 L39.9774987,42.101905 C39.9774987,43.9999931 40.0506124,45.3002872 40.196842,46.0028263 C40.3430716,46.7053655 40.6411505,47.2908059 41.0910877,47.7591654 Z M60.8890734,39.254787 C60.5741174,40.2408068 60.3154074,41.1959992 60.1129356,42.1203928 C59.9104639,43.0447863 59.8092296,44.0246288 59.8092296,45.0599496 C59.8092296,47.4756982 60.9790487,48.7698297 63.318722,48.9423832 L63.318722,51.38277 L48.9095559,51.38277 L48.9095559,48.9423832 C49.7419397,48.8437812 50.4730766,48.5233296 51.1029887,47.9810187 C51.7329007,47.4387078 52.306562,46.699204 52.8239898,45.7624852 C53.3414175,44.8257664 53.8925823,43.4823346 54.4775006,41.7321494 L68.5492156,0.652304439 L77.5591626,0.652304439 L88.6950521,42.0649294 C89.189983,43.9137166 89.6061686,45.2263357 89.9436215,46.0028263 C90.2810744,46.7793169 90.7197566,47.4078952 91.2596812,47.8885798 C91.7996058,48.3692645 92.5532393,48.7205288 93.5206042,48.9423832 L93.5206042,51.38277 L74.8932981,51.38277 L74.8932981,48.9423832 C76.0631348,48.7944802 76.9292508,48.4370534 77.4916723,47.870092 C78.0540938,47.3031306 78.3353003,46.5020016 78.3353003,45.4666808 C78.3353003,44.7025154 78.2565625,43.8520861 78.0990845,42.9153673 C77.9416065,41.9786484 77.6828965,40.7954424 77.3229467,39.3657137 L76.4118285,35.742109 L62.0026623,35.742109 L60.8890734,39.254787 Z M70.0340009,10.5987295 L63.2849769,31.4159687 L75.43322,31.4159687 L70.0340009,10.5987295 Z M115.793656,47.2230198 C116.05237,47.6297529 116.423563,47.9686922 116.907245,48.2398476 C117.390928,48.5110031 118.138937,48.7451792 119.151296,48.9423832 L119.151296,51.38277 L100.996421,51.38277 L100.996421,48.9423832 C101.828805,48.6958783 102.486828,48.4308894 102.970511,48.1474087 C103.454193,47.863928 103.814138,47.469526 104.050355,46.9641909 C104.286572,46.4588557 104.438423,45.8179524 104.505914,45.0414618 C104.573404,44.2649712 104.607149,43.2851288 104.607149,42.101905 L104.607149,10.228974 C104.607149,9.07040069 104.579029,8.09672073 104.522786,7.30790488 C104.466544,6.51908903 104.320317,5.87818577 104.0841,5.38517587 C103.847883,4.89216596 103.487939,4.49160142 103.004256,4.18347023 C102.520574,3.87533904 101.851302,3.59802513 100.996421,3.35152017 L100.996421,0.911133346 L120.602336,0.911133346 C126.294041,0.911133346 130.557132,2.02655152 133.391736,4.25742135 C136.226341,6.48829117 137.643621,9.92082114 137.643621,14.5551143 C137.643621,17.8336301 136.979974,20.6807196 135.652659,23.0964682 C134.325345,25.5122167 132.401892,27.3424885 129.882244,28.5873385 C127.362596,29.8321885 124.213083,30.4546042 120.43361,30.4546042 C118.251415,30.4546042 116.462942,30.405304 115.068136,30.306702 L115.068136,42.1388805 C115.068136,43.7658132 115.124378,44.9182066 115.236862,45.5960952 C115.349346,46.2739838 115.534943,46.8162866 115.793656,47.2230198 Z M123.335691,25.0746605 C124.663005,24.3721214 125.647228,23.2567032 126.288389,21.7283725 C126.929549,20.2000418 127.250125,18.1417563 127.250125,15.5534543 C127.250125,12.9898028 126.929549,10.9500049 126.288389,9.43399947 C125.647228,7.91799401 124.707998,6.83955102 123.470671,6.19863814 C122.233344,5.55772527 120.647339,5.23727363 118.712609,5.23727363 C117.137829,5.23727363 115.923017,5.26192376 115.068136,5.31122475 L115.068136,26.1284639 L117.970217,26.1284639 C120.219903,26.1284639 122.008376,25.7771996 123.335691,25.0746605 Z M160.563031,47.2230198 C160.821745,47.6297529 161.192937,47.9686922 161.67662,48.2398476 C162.160302,48.5110031 162.908312,48.7451792 163.92067,48.9423832 L163.92067,51.38277 L145.765796,51.38277 L145.765796,48.9423832 C146.59818,48.6958783 147.256203,48.4308894 147.739885,48.1474087 C148.223568,47.863928 148.583512,47.469526 148.819729,46.9641909 C149.055946,46.4588557 149.207798,45.8179524 149.275288,45.0414618 C149.342779,44.2649712 149.376524,43.2851288 149.376524,42.101905 L149.376524,10.228974 C149.376524,9.07040069 149.348403,8.09672073 149.292161,7.30790488 C149.235919,6.51908903 149.089691,5.87818577 148.853474,5.38517587 C148.617257,4.89216596 148.257313,4.49160142 147.77363,4.18347023 C147.289948,3.87533904 146.620676,3.59802513 145.765796,3.35152017 L145.765796,0.911133346 L165.37171,0.911133346 C171.063416,0.911133346 175.326506,2.02655152 178.161111,4.25742135 C180.995715,6.48829117 182.412996,9.92082114 182.412996,14.5551143 C182.412996,17.8336301 181.749348,20.6807196 180.422034,23.0964682 C179.094719,25.5122167 177.171266,27.3424885 174.651618,28.5873385 C172.13197,29.8321885 168.982457,30.4546042 165.202985,30.4546042 C163.020789,30.4546042 161.232316,30.405304 159.837511,30.306702 L159.837511,42.1388805 C159.837511,43.7658132 159.893752,44.9182066 160.006236,45.5960952 C160.118721,46.2739838 160.304317,46.8162866 160.563031,47.2230198 Z M168.105065,25.0746605 C169.43238,24.3721214 170.416603,23.2567032 171.057763,21.7283725 C171.698923,20.2000418 172.019499,18.1417563 172.019499,15.5534543 C172.019499,12.9898028 171.698923,10.9500049 171.057763,9.43399947 C170.416603,7.91799401 169.477373,6.83955102 168.240046,6.19863814 C167.002718,5.55772527 165.416713,5.23727363 163.481984,5.23727363 C161.907203,5.23727363 160.692391,5.26192376 159.837511,5.31122475 L159.837511,26.1284639 L162.739591,26.1284639 C164.989277,26.1284639 166.77775,25.7771996 168.105065,25.0746605 Z M213.110655,45.0784374 C213.178146,45.756326 213.301877,46.3047913 213.481852,46.7238497 C213.661826,47.1429081 213.881167,47.4818474 214.139881,47.7406776 C214.398595,47.9995078 214.75854,48.233684 215.219725,48.4432132 C215.680911,48.6527424 216.305189,48.8191307 217.092579,48.9423832 L217.092579,51.38277 L198.465273,51.38277 L198.465273,48.9423832 C199.387644,48.7698297 200.124406,48.5479786 200.675579,48.2768232 C201.226752,48.0056677 201.637313,47.6112657 201.907275,47.0936053 C202.177238,46.5759449 202.351586,45.9165541 202.430325,45.115413 C202.509064,44.3142719 202.548433,43.3097792 202.548433,42.101905 L202.548433,31.9706021 L193.403505,10.8205829 C192.616115,9.02109674 191.997461,7.68998996 191.547524,6.82722263 C191.030096,5.81655232 190.58579,5.08937362 190.214591,4.64566471 C189.843393,4.20195579 189.500321,3.89382922 189.185365,3.72127575 C188.870409,3.54872229 188.431727,3.42547166 187.869306,3.35152017 L187.869306,0.911133346 L205.855454,0.911133346 L205.855454,3.35152017 C204.123196,3.59802513 203.25708,4.5347299 203.25708,6.16166258 C203.25708,6.80257546 203.397683,7.56672935 203.678894,8.45414718 C203.960105,9.34156501 204.41566,10.524771 205.045572,12.0038008 L210.748497,25.9066106 L216.923854,12.3365808 C217.531269,10.9808035 217.953079,9.85306029 218.189296,8.95331721 C218.425513,8.05357414 218.543619,7.16000709 218.543619,6.27258926 C218.543619,5.38517143 218.31303,4.68880538 217.851845,4.18347023 C217.390659,3.67813508 216.743884,3.40082117 215.9115,3.35152017 L215.9115,0.911133346 L229.443293,0.911133346 L229.443293,3.35152017 C228.835878,3.49942315 228.33533,3.70278668 227.941635,3.96161688 C227.54794,4.22044708 227.114882,4.62717415 226.642448,5.1818103 C226.170014,5.73644644 225.607601,6.56838818 224.955192,7.67766046 C224.302783,8.78693275 223.54915,10.2289651 222.694269,12.0038008 L213.00942,31.9706021 L213.00942,42.101905 C213.00942,43.4083812 213.043165,44.4005488 213.110655,45.0784374 Z" id="HAPPY" fill="#E9D195"></path>
                    </g>
                </g>
            </g>
            <g id="sanskrit-element" transform="translate(263.000000, 468.000000)" sketch:type="MSShapeGroup">
                <circle id="background" stroke="#3A4C64" stroke-width="7" fill="#E9D195" cx="42.5" cy="42.5" r="42.5"></circle>
                <path d="M27.425192,69.5785949 C21.023722,67.2910333 16.3756206,61.5987746 14.5352598,53.7930546 C13.7000343,50.2503118 13.4638612,44.3962905 14.1562513,44.3962905 C14.3862899,44.3962905 15.0006777,46.0025934 15.52157,47.9658533 C16.6614504,52.2619012 18.6056725,56.3017066 20.4836868,58.2764051 C23.6031156,61.5563895 31.3295021,62.8409838 35.7813565,60.8197838 C39.249228,59.2453098 40.6555296,55.503165 39.147535,51.8624732 C37.982219,49.0491878 35.3385714,48.1084824 30.4142655,48.7548654 C30.4142655,48.7548654 27.3963778,45.5064019 26.4349168,39.7376358 L29.5282218,40.0181235 C33.253894,40.355957 36.0668697,39.5324036 37.5268477,37.6763888 C38.8987753,35.9322571 38.8691106,35.2577047 37.3423932,33.4828071 C35.1393632,30.9216413 31.1837054,31.5704401 23.174556,35.8065824 L19.13344,29.0324546 L20.8276335,27.7402252 C25.0732986,24.5018838 32.4452153,22.8829483 36.6405903,24.2675515 C40.4620325,25.5287336 43.2668647,30.5330557 42.5176264,34.7530848 C42.0110658,37.6061109 39.7233718,41.6020939 37.9559355,42.7211486 L36.4317053,43.6862215 L38.5371124,44.6356251 C42.1148733,46.2489472 44.2990232,45.0156648 46.9085584,39.9086878 C50.5199018,32.8412162 52.8621167,31.0116405 58.308583,31.00381 C60.8445616,31.0001605 61.7471573,31.2661776 63.5968252,32.5624026 C68.2131975,35.7974652 70.7268038,42.4965378 70.1747138,50.092924 C69.4753946,59.7137375 64.9183037,65.5492612 58.1045099,65.5492612 C54.3650344,65.5492612 51.9547074,64.2376963 50.0360265,61.1588409 C48.3507706,58.4544431 47.5913239,53.0983355 48.5591257,50.7421816 C49.0234337,49.6118306 49.1073593,49.5734908 49.1377128,50.4777689 C49.1935037,52.1402568 51.0848976,54.8423877 52.8213445,55.7403371 C57.0818163,57.9435144 63.1980396,55.1754539 65.6178348,49.9489437 C67.4550225,45.9808752 66.4693986,38.3270224 63.9474899,36.9773247 C63.4198817,36.6949543 62.1161176,36.4639255 61.0503253,36.4639255 C58.7847353,36.4639255 57.005506,38.0927166 54.5110431,42.4503079 C53.6486367,43.9568734 52.1972775,45.9034389 51.2857981,46.775999 C49.8048768,48.1937194 49.2760533,48.362473 46.3142141,48.362473 L42.9997547,48.362473 L44.0711007,50.7421816 C45.6045839,54.1483971 45.5320308,59.6827216 43.9097555,63.0518045 C42.4762713,66.0288826 39.1618135,69.0429061 36.5120343,69.7790085 C33.9325331,70.4955768 29.7319769,70.4029314 27.425192,69.5785949 L27.425192,69.5785949 Z M39.9065562,23.541386 C38.440339,21.0394916 37.5380049,16.3686032 38.5208767,16.3686032 C39.6753899,18.8732829 42.042047,21.1078292 44.576128,22.6670127 C49.1275591,24.8703109 53.7427144,23.9809819 58.7847899,19.9290457 C59.894792,19.0370408 60.8777698,18.4064662 60.9692047,18.5277678 C62.2003694,20.4383871 64.3300199,21.9997016 65.0339572,24.2199092 C65.0339572,25.1566752 61.0013565,27.8526796 57.8193692,29.0431995 C49.9325933,31.3151265 44.5648499,30.4163988 39.9065562,23.541386 L39.9065562,23.541386 Z M43.8809882,17.7580465 L49.0156611,12.0646255 L54.7218837,17.3469281 C52.770094,18.9544581 51.3611529,21.4492703 49.1313676,22.7144944 C47.3695016,21.415682 44.7398908,19.8842675 43.8809882,17.7580465 L43.8809882,17.7580465 Z" id="Shape" fill="#B53704"></path>
            </g>
        </g>
    </g>
</svg>